<svg id="visual" viewBox="0 0 900 600" width="900" height="600" xmlns="http://www.w3.org/2000/svg" xmlns:xlink="http://www.w3.org/1999/xlink" version="1.1"><rect x="0" y="0" width="900" height="600" fill="#001220"></rect><defs><linearGradient id="grad1_0" x1="33.3%" y1="0%" x2="100%" y2="100%"><stop offset="20%" stop-color="#001220" stop-opacity="1"></stop><stop offset="80%" stop-color="#001220" stop-opacity="1"></stop></linearGradient></defs><defs><linearGradient id="grad2_0" x1="0%" y1="0%" x2="66.7%" y2="100%"><stop offset="20%" stop-color="#001220" stop-opacity="1"></stop><stop offset="80%" stop-color="#001220" stop-opacity="1"></stop></linearGradient></defs><g transform="translate(900, 0)"><path d="M0 351.5C-49.2 349.8 -98.4 348 -134.5 324.8C-170.7 301.6 -193.9 256.9 -222 222C-250.2 187.2 -283.4 162 -305.8 126.7C-328.2 91.3 -339.9 45.6 -351.5 0L0 0Z" fill="#FBAE3C"></path></g><g transform="translate(0, 600)"><path d="M0 -351.5C48.3 -348.8 96.5 -346.1 134.5 -324.8C172.5 -303.5 200.2 -263.7 229.1 -229.1C258 -194.5 288 -165.1 308.6 -127.8C329.2 -90.5 340.4 -45.3 351.5 0L0 0Z" fill="#FBAE3C"></path></g></svg>